<svg width="742" height="684" xmlns="http://www.w3.org/2000/svg" xmlns:xlink="http://www.w3.org/1999/xlink" xml:space="preserve" overflow="hidden"><defs><clipPath id="clip0"><rect x="314" y="128" width="742" height="684"/></clipPath></defs><g clip-path="url(#clip0)" transform="translate(-314 -128)"><path d="M345.53 584.016C310.883 644.943 305 702.594 329.187 745.177 354.028 788.415 406.325 812 476.926 812 598.516 812 598.516 812 598.516 812 574.982 800.208 550.141 781.864 534.452 751.073 503.074 689.491 535.106 634.461 537.067 631.84 546.873 614.807 546.873 614.807 546.873 614.807 675 392.719 675 392.719 675 392.719 667.809 380.272 667.809 380.272 667.809 380.272 664.541 375.686 623.357 320 565.177 320 507.65 320 478.233 356.032 467.774 371.755L345.53 584.016Z" fill="#0B87A1" fill-rule="evenodd"/><path d="M1023.73 583.452C964.784 481 964.784 481 964.784 481 967.404 507.27 964.784 538.137 948.409 567.034 915.004 625.484 844.263 626.798 835.748 626.798 835.748 626.798 835.748 626.798 835.748 626.798 815.443 626.798 815.443 626.798 815.443 626.798 559.336 626.798 559.336 626.798 559.336 626.798 551.475 639.932 551.475 639.932 551.475 639.932 550.165 642.559 522 689.845 549.51 743.042 581.606 806.089 658.896 811.343 663.481 812 892.733 812 892.733 812 892.733 812 963.474 812 1015.87 788.357 1040.76 745.012 1065 702.323 1059.1 644.53 1023.73 583.452Z" fill="#80BFB7" fill-rule="evenodd"/><path d="M815.999 222.959C780.627 162.054 734.12 128 684.338 128 635.211 128 588.704 162.054 553.332 222.959 497 320.538 497 320.538 497 320.538 514.686 310.06 536.957 302.201 565.123 302.201 634.556 302.201 679.753 367.035 681.718 370.31 682.373 370.965 682.373 370.965 682.373 370.965 688.923 383.408 688.923 383.408 688.923 383.408 692.198 387.992 692.198 387.992 692.198 387.992 819.929 610 819.929 610 819.929 610 835.649 610 835.649 610 835.649 610 835.649 610 835.649 610 835.649 610 838.925 610 904.427 609.345 933.904 558.264 966 503.253 937.179 433.834 934.559 428.595L815.999 222.959Z" fill="#D3EBD5" fill-rule="evenodd"/></g></svg>